<svg width="605" height="609" viewBox="0 0 605 609" fill="none" xmlns="http://www.w3.org/2000/svg">
<path d="M500.44 302.619C500.036 300.098 499.584 297.576 499.085 295.078C498.253 290.868 497.255 286.705 496.162 282.542C490.649 261.965 481.665 242.173 469.26 224.807V224.783C468.88 224.283 468.523 223.784 468.167 223.26C465.576 219.74 462.867 216.338 460.039 213.079C448.133 199.448 434.088 188.196 418.213 179.133C412.129 175.659 405.855 172.305 399.51 169.165H399.486C395.565 167.215 391.548 165.312 387.508 163.551H387.484C379.998 160.245 372.393 157.271 364.67 154.773C361.414 153.703 358.134 152.727 354.831 151.823C353.215 151.395 351.575 150.967 349.935 150.563C341.356 148.493 332.563 147.042 323.722 146.185C321.108 145.924 318.494 145.733 315.88 145.591C313.075 145.424 310.271 145.329 307.443 145.282C304.924 145.258 302.429 145.258 299.909 145.305C294.871 145.448 289.833 145.757 284.818 146.281C281.848 146.59 278.877 146.971 275.931 147.423C270.512 148.231 265.118 149.278 259.794 150.563C256.895 151.252 254.043 152.037 251.167 152.87C247.222 154.036 243.301 155.297 239.404 156.7H239.38C233.985 158.603 228.686 160.72 223.41 163.028C217.112 165.764 210.933 168.737 204.849 171.901C200.334 174.209 195.889 176.635 191.493 179.133C171.792 190.361 154.966 204.967 141.539 223.237C130.227 238.628 121.695 256.089 115.944 274.311C115.184 276.69 114.471 279.116 113.806 281.519C113.687 281.828 113.615 282.161 113.52 282.494C110.407 294.151 108.34 306.092 107.247 318.13C107.08 319.914 106.938 321.722 106.795 323.53C106.058 334.377 106.035 345.272 106.629 356.096C106.819 359.593 107.08 363.09 107.389 366.611C107.579 368.895 107.817 371.179 108.102 373.462C108.886 380.361 110.003 387.212 111.572 393.944C112.974 400.011 114.875 405.934 117.204 411.691C117.632 412.785 118.084 413.856 118.535 414.95C120.436 419.351 122.575 423.657 124.881 427.844C130.655 438.263 137.452 448.064 144.415 457.698C146.316 460.315 148.218 462.931 150.19 465.5C150.974 466.571 151.782 467.641 152.59 468.688C157.248 474.778 162.096 480.773 167.277 486.482C171.626 491.287 176.189 495.807 181.014 500.065C183.723 502.444 186.48 504.728 189.331 506.917C190.235 507.654 191.161 508.344 192.112 509.034C195.867 511.841 199.764 514.458 203.757 516.908C208.13 519.572 212.645 522.046 217.28 524.258C220.25 525.686 223.245 527.042 226.334 528.279H226.358C231.539 530.443 236.886 532.347 242.352 534.036H242.376C251.407 536.819 260.722 538.96 270.252 540.459C273.508 541.006 276.811 541.434 280.115 541.791C285.224 542.362 290.381 542.766 295.538 542.956C298.2 543.099 300.862 543.147 303.523 543.147C305.496 543.17 307.445 543.17 309.441 543.123C311.722 543.099 313.98 543.004 316.238 542.885C318.757 542.766 321.276 542.576 323.771 542.362C327.027 542.1 330.259 541.767 333.492 541.339C336.819 540.911 340.122 540.411 343.378 539.792H343.402C347.846 539.031 352.195 538.104 356.544 537.033C369.092 533.964 381.212 529.683 392.453 524.282C401.341 520 409.754 514.885 417.596 509.081C418.048 508.748 418.523 508.391 418.998 508.034C427.459 501.659 435.278 494.427 442.431 486.505C450.012 478.132 456.951 469.163 463.606 460.052C464.176 459.267 464.747 458.506 465.317 457.721C466.054 456.698 466.79 455.675 467.503 454.652C473.706 446.017 479.671 437.191 484.805 427.89C487.443 423.133 489.843 418.232 491.911 413.212C492.742 411.262 493.503 409.264 494.216 407.242C495.761 402.912 497.091 398.511 498.137 394.015C500.276 384.88 501.559 375.555 502.344 366.206V366.182C502.581 363.352 502.795 360.521 502.961 357.69C502.985 357.19 503.009 356.691 503.057 356.168C504.031 338.326 503.339 320.271 500.44 302.619ZM454.882 219.742C472.017 240.534 483.305 266.035 489.104 292.462C489.508 294.27 489.864 296.101 490.197 297.933C489.864 297.838 489.532 297.743 489.199 297.647C485.872 296.696 482.569 295.768 479.241 294.912C475.843 294.008 472.445 293.151 469.022 292.319C467.787 287.823 466.361 283.398 464.721 279.021C462.535 273.098 459.897 267.317 456.831 261.798C455.31 259.062 453.717 256.422 451.888 253.924C449.915 251.236 447.562 248.833 445.329 246.335C444.853 245.788 444.117 246.454 444.497 247.025C447.729 251.854 450.367 257.231 453.1 262.369C455.667 267.15 457.9 272.122 459.802 277.189C461.513 281.733 462.891 286.371 464.032 291.081C463.723 291.01 463.438 290.939 463.129 290.867H463.105C455.548 289.083 447.967 287.418 440.362 285.919C440.196 284.635 440.053 283.374 439.863 282.089C436.298 257.444 429.811 233.251 420.28 210.223C431.949 212.887 443.522 216.031 454.882 219.742ZM442.833 337.283C443.308 324.913 443.023 312.543 441.954 300.221C441.74 297.866 441.502 295.534 441.264 293.18C449.155 294.726 456.997 296.486 464.792 298.389C465.077 298.461 465.362 298.532 465.648 298.58C466.36 302.362 466.931 306.168 467.382 309.998C468.689 320.798 468.785 331.717 467.905 342.541C459.73 340.257 451.341 338.591 442.833 337.283ZM467.145 350.177C465.885 360.548 463.77 370.849 460.966 380.888C459.374 386.621 457.544 392.283 455.571 397.897C453.266 397.421 450.961 396.945 448.656 396.493C444.212 395.613 439.768 394.78 435.276 393.995C439.031 377.891 441.407 361.477 442.453 344.967C450.771 346.252 459.041 347.845 467.121 350.177L467.145 350.177ZM371.944 239.487C362.819 236.513 352.837 236.014 343.331 235.253C342.096 235.157 340.884 235.062 339.648 234.991C338.103 221.979 336.202 208.99 333.992 196.073C334.158 196.097 334.324 196.097 334.491 196.121C347.87 197.857 361.226 199.617 374.558 201.663C381.878 222.954 387.701 244.768 391.075 267.008C391.526 270.053 391.954 273.098 392.311 276.142C392.406 276.951 392.477 277.784 392.548 278.593C390.053 278.307 387.581 278.069 385.086 277.831C371.421 276.571 357.756 275.905 344.067 275.809H343.473C343.449 275.429 343.426 275.072 343.402 274.691C342.665 264.034 341.715 253.401 340.526 242.743C350.627 243.505 360.845 245.265 370.946 244.884C373.964 244.765 375.058 240.486 371.944 239.487ZM288.577 383.433C288.197 367.781 288.149 352.104 288.411 336.451C303.882 335.785 319.376 335.619 334.848 335.928C335.727 335.952 336.606 335.952 337.486 335.999C337.438 342.018 337.296 348.036 337.105 354.054C336.796 363.879 336.345 373.704 335.703 383.481V383.457C319.995 382.91 304.286 382.886 288.577 383.433ZM288.553 329.053C288.577 328.315 288.577 327.578 288.601 326.84C288.957 313.209 289.552 299.602 290.36 285.995C290.36 285.876 290.383 285.781 290.383 285.662C290.502 285.639 290.621 285.639 290.74 285.615C305.855 284.069 320.993 283.165 336.131 282.974C337.034 298.128 337.486 313.305 337.486 328.506C321.183 328.125 304.856 328.291 288.553 329.053ZM290.882 278.43C291.69 266.132 292.712 253.833 293.924 241.582C298.416 241.463 302.884 241.439 307.399 241.463C315.835 241.51 324.319 241.772 332.756 242.248C333.945 253.12 334.943 263.991 335.68 274.91C335.703 275.219 335.703 275.528 335.727 275.814C320.969 275.957 306.187 276.789 291.453 278.359C291.239 278.383 291.049 278.407 290.882 278.43ZM383.327 203.044C388.389 203.877 393.427 204.757 398.489 205.684C402.577 206.446 406.664 207.254 410.728 208.087C420.567 231.305 427.458 255.735 431.237 280.642C431.427 281.831 431.57 283.021 431.76 284.21H431.712C421.517 282.378 411.274 280.808 401.008 279.524C400.913 279.5 400.818 279.5 400.723 279.5C400.675 279 400.628 278.501 400.58 278.001C400.556 277.597 400.485 277.216 400.437 276.836C397.562 251.691 391.383 227.045 383.327 203.044ZM393.355 331.479C377.765 330.147 362.128 329.243 346.562 328.744C346.158 328.72 345.754 328.72 345.374 328.72C345.35 317.944 345.112 307.167 344.661 296.391C344.471 291.919 344.233 287.423 343.948 282.951H344.352C353.763 282.975 363.198 283.284 372.656 283.926C379.524 284.402 386.392 284.997 393.236 285.758C394.424 300.959 394.377 316.255 393.355 331.479ZM344.708 362.143C345.065 353.508 345.279 344.849 345.35 336.19C361.178 336.713 377.005 337.712 392.785 339.14C392.048 347.347 391.074 355.578 389.862 363.737C388.721 371.516 387.39 379.224 385.965 386.955C378.55 386.17 371.111 385.504 363.649 384.957C356.923 384.457 350.198 384.053 343.449 383.744C343.948 376.559 344.399 369.351 344.708 362.143ZM385.94 427.207C388.388 416.241 390.67 405.227 392.761 394.165C403.669 395.449 414.553 396.996 425.391 398.804C418.926 423.734 409.159 447.737 396.54 470.22C392.381 477.618 387.889 484.849 383.136 491.867C380.071 491.106 377.029 490.392 373.963 489.726C371.444 489.155 368.949 488.656 366.429 488.18C368.568 483.47 370.588 478.712 372.442 473.907C378.288 458.753 382.446 443.051 385.94 427.207ZM393.949 387.885C394.591 384.46 395.185 381.058 395.755 377.632C397.894 365.095 399.629 352.511 400.746 339.904C410.228 340.831 419.663 341.926 429.122 343.139C430.809 343.353 432.449 343.567 434.136 343.781C433.257 358.055 431.356 372.256 428.385 386.22C427.934 388.361 427.482 390.455 426.959 392.572C415.98 390.74 404.976 389.17 393.949 387.885ZM401.364 332.196C402.41 317.066 402.529 301.889 401.34 286.688C401.388 286.688 401.459 286.712 401.507 286.712C411.868 287.997 422.23 289.614 432.52 291.494C432.592 291.517 432.639 291.517 432.711 291.517C434.422 306.267 435.04 321.206 434.517 336.097C423.49 334.551 412.439 333.267 401.364 332.196ZM428.718 195.314C434.326 199.263 439.531 203.64 444.379 208.35C435.206 205.781 425.938 203.545 416.598 201.618C413.603 194.957 410.299 188.415 406.806 181.992C414.34 186.012 421.73 190.366 428.718 195.314ZM394.734 175.879C398.18 181.945 401.46 188.154 404.525 194.458C405.381 196.218 406.213 197.955 407.021 199.739C398.251 198.074 389.458 196.646 380.618 195.362C379.691 192.674 378.693 189.986 377.719 187.321C374.914 179.828 371.991 172.382 368.949 164.984C377.671 168.1 386.226 171.763 394.734 175.879ZM359.062 161.653C361.439 167.268 363.792 172.906 366.025 178.591C368.045 183.705 370.018 188.891 371.872 194.077C362.271 192.745 352.622 191.556 343.021 190.414C339.599 190.009 336.176 189.581 332.754 189.201C331.352 181.398 329.831 173.595 328.191 165.817C327.383 162.058 326.575 158.299 325.672 154.564C337.079 155.873 348.202 158.323 359.062 161.653ZM305.995 153.518C309.916 153.494 313.814 153.613 317.711 153.851C320.278 165.293 322.607 176.759 324.721 188.273C318.733 187.631 312.72 187.083 306.708 186.75C304.688 186.631 302.668 186.56 300.671 186.536C302.311 175.522 304.117 164.508 305.995 153.518ZM302.216 192.27C310.154 192.864 318.044 193.911 325.91 194.982C327.621 204.545 329.118 214.202 330.449 223.837C330.924 227.382 331.376 230.95 331.803 234.495C326.052 234.161 320.301 233.947 314.526 233.876C307.896 233.828 301.265 233.9 294.635 234.114C294.873 231.687 295.134 229.261 295.396 226.858C296.679 215.226 298.176 203.641 299.864 192.08C300.672 192.151 301.456 192.222 302.216 192.27ZM279.093 155.659C285.462 154.684 291.878 154.065 298.294 153.732C297.605 157.301 296.964 160.893 296.346 164.437C295.039 171.835 293.803 179.21 292.662 186.655V186.679C290.951 186.751 289.216 186.869 287.505 187.036C281.326 187.607 275.409 189.177 269.42 190.604C268.659 190.771 268.778 191.936 269.586 191.841C276.858 190.699 284.439 190.937 291.902 191.461C290.761 198.978 289.691 206.495 288.717 214.036C287.838 220.839 287.006 227.619 286.269 234.447C276.43 234.922 266.615 235.707 256.825 236.754C250.004 237.492 243.207 238.372 236.434 239.418C238.145 234.756 240.022 230.117 241.971 225.526C252.333 201.262 265.38 178.237 279.093 155.659ZM280.019 383.743C279.425 383.767 278.831 383.767 278.237 383.815C259.629 384.695 240.997 386.289 222.532 388.644C220.108 373.681 218.658 358.599 218.349 343.469C225.812 342.28 233.297 341.233 240.783 340.305C253.759 338.735 266.806 337.593 279.853 336.856C279.592 352.509 279.639 368.114 280.019 383.743ZM279.996 329.481C270.014 330.052 260.057 330.837 250.123 331.884C239.476 333.002 228.853 334.382 218.277 336.071C218.301 331.836 218.42 327.555 218.61 323.296C219.038 314.447 219.941 305.669 221.248 297.01C221.367 296.225 221.509 295.44 221.628 294.655C239.832 291.943 258.06 289.54 276.288 287.257C278.118 287.019 279.948 286.805 281.778 286.591C281.754 286.781 281.754 286.971 281.73 287.161C281.184 296.082 280.732 305.05 280.423 313.995C280.257 319.157 280.114 324.319 279.996 329.481ZM239.405 285.187C233.891 285.972 228.378 286.757 222.864 287.566C225.502 273.721 229.162 260.114 233.796 246.769C250.931 244.152 268.207 242.511 285.509 241.821C284.178 254.31 283.109 266.87 282.277 279.407C267.97 281.12 253.688 283.165 239.405 285.187ZM214.665 288.803C214.594 288.827 214.523 288.827 214.475 288.827C206.823 289.945 199.194 291.158 191.566 292.467C189.213 292.871 186.836 293.275 184.483 293.703C186.717 283.498 189.403 273.388 192.563 263.444C193.562 260.328 194.583 257.236 195.677 254.143C205.421 251.836 215.211 249.837 225.098 248.148C220.654 261.422 217.136 274.981 214.665 288.803ZM213.525 295.892C213.406 296.749 213.239 297.605 213.144 298.461C212.574 302.339 212.146 306.24 211.766 310.166C210.934 319.205 210.506 328.269 210.506 337.356C199.432 339.235 188.429 341.471 177.497 344.064C178.162 333.05 179.255 322.083 181.085 311.141C181.465 308.929 181.846 306.717 182.25 304.504C182.463 303.315 182.725 302.149 182.963 300.96C193.015 299.152 203.092 297.511 213.192 295.941C213.287 295.917 213.406 295.916 213.525 295.892ZM175.952 295.25C175.714 295.298 175.453 295.345 175.215 295.393C166.208 297.082 157.273 298.937 148.36 301.031C150.832 288.661 154.23 276.457 158.508 264.586C167.705 261.589 176.998 258.901 186.361 256.475C182.107 269.178 178.661 282.142 175.952 295.25ZM173.647 302.624C173.932 302.577 174.217 302.529 174.478 302.481C174.407 302.838 174.336 303.171 174.288 303.528C174.122 304.432 173.955 305.36 173.813 306.264C171.508 319.419 169.844 332.765 169.179 346.134C164.83 347.228 160.481 348.394 156.156 349.631C151.854 350.844 147.576 352.105 143.322 353.437C143.227 343.517 143.726 333.621 144.819 323.725C145.223 320.038 145.723 316.351 146.269 312.687C146.507 311.141 146.792 309.595 147.053 308.048C155.894 306.05 164.734 304.266 173.647 302.624ZM148.551 359.455C155.3 357.409 162.097 355.506 168.918 353.769C168.87 355.673 168.87 357.552 168.87 359.455C168.894 364.546 176.641 364.784 176.808 359.669C176.879 357.029 176.998 354.34 177.117 351.7C188.191 349.012 199.36 346.704 210.602 344.777C210.982 359.812 212.455 374.822 214.856 389.667C207.678 390.666 200.525 391.808 193.372 393.068C179.279 395.542 165.282 398.468 151.403 401.87C150.5 402.084 149.55 402.322 148.647 402.56C145.747 388.834 144.036 374.941 143.489 360.954C145.201 360.478 146.863 359.954 148.551 359.455ZM184.27 400.752C194.774 398.872 205.301 397.255 215.877 395.804C217.018 402.155 218.325 408.483 219.775 414.739C221.89 423.827 224.337 432.771 227.094 441.668C216.114 443.69 205.206 446.212 194.441 449.257C193.585 446.854 192.753 444.452 191.969 442.025C187.644 428.632 184.768 414.906 181.512 401.252C182.415 401.061 183.343 400.894 184.27 400.752ZM223.577 394.828C238.572 392.949 253.592 391.545 268.683 390.641C272.533 390.427 276.359 390.213 280.209 390.047C280.47 398.111 280.803 406.175 281.231 414.24C281.611 421.162 282.039 428.085 282.562 435.031C271.63 435.555 260.722 436.554 249.885 438.005C244.847 438.671 239.809 439.432 234.794 440.313C233.297 435.579 231.894 430.797 230.587 425.992C227.807 415.691 225.454 405.296 223.577 394.828ZM283.013 441.406C284.083 455.227 285.437 469.049 287.006 482.822C286.245 482.87 285.485 482.87 284.724 482.917C273.816 483.512 262.908 484.63 252.095 486.248C246.343 473.164 241.139 459.819 236.695 446.259C252.047 443.738 267.518 442.144 283.013 441.406ZM242.518 164.603H242.541C251.429 161.582 260.531 159.131 269.705 157.3C267.78 160.392 265.878 163.509 264.001 166.649C255.279 181.327 247.056 196.29 239.761 211.728C235.245 221.267 231.181 230.973 227.617 240.845C217.778 242.534 208.01 244.532 198.314 246.816C207.678 221.767 219.941 197.788 234.889 175.571C237.384 171.883 239.927 168.243 242.518 164.603ZM208.938 178.852C209.936 178.352 210.91 177.853 211.908 177.353C217.85 174.38 223.91 171.644 230.089 169.17C221.058 181.944 213.097 195.504 206.015 209.468C199.48 222.337 193.752 235.588 188.904 249.171C179.612 251.549 170.415 254.214 161.289 257.164C163.832 250.693 166.612 244.294 169.678 238.038C180.135 216.509 193.467 196.884 208.938 178.852ZM180.966 195.314C184.032 193.149 187.145 191.103 190.33 189.176C182.25 199.619 175.025 210.729 168.656 222.219C161.859 234.493 156.013 247.316 151.212 260.518C149.335 261.161 147.457 261.851 145.58 262.517C139.377 264.777 133.198 267.132 127.09 269.606C137.476 240.227 155.228 213.534 180.966 195.314ZM118.728 301.959C120.154 293.586 122.103 285.236 124.622 277.053C129.969 274.841 135.364 272.676 140.782 270.678C143.396 269.702 146.01 268.775 148.625 267.847C144.775 279.36 141.78 291.136 139.57 303.054C139.213 303.149 138.833 303.244 138.477 303.315C131.514 305.028 124.526 306.884 117.658 308.977C117.991 306.669 118.324 304.314 118.728 301.959ZM116.732 362.739C115.496 348.823 115.306 334.74 116.399 320.8C116.566 318.945 116.732 317.137 116.922 315.305C122.507 313.902 128.115 312.546 133.7 311.166C134.865 310.88 136.029 310.595 137.194 310.31C137.55 310.214 137.93 310.143 138.31 310.048C138.287 310.119 138.287 310.191 138.287 310.262C138.049 311.832 137.811 313.378 137.598 314.948C135.649 328.603 134.793 342.377 135.031 356.126C128.852 358.148 122.745 360.361 116.732 362.739ZM126.523 408.532C121.889 397.185 119.299 385.148 117.825 373.016C117.683 371.922 117.564 370.875 117.445 369.781C123.315 367.592 129.28 365.547 135.245 363.62C135.863 377.036 137.527 390.453 140.283 403.656C140.355 403.989 140.426 404.322 140.497 404.655C135.815 405.892 131.182 407.2 126.571 408.604C126.571 408.604 126.547 408.556 126.523 408.532ZM159.248 461.486C153.473 453.873 148.055 446.023 142.826 438.149C137.431 430.014 132.369 421.592 128.33 412.695C132.75 411.696 137.17 410.673 141.591 409.627C145.749 427.421 151.786 444.786 159.414 461.414C159.343 461.414 159.295 461.462 159.248 461.486ZM167.233 458.227C160.603 443.882 155.231 428.99 151.239 413.694C150.74 411.72 150.241 409.745 149.789 407.747C158.63 405.725 167.518 403.87 176.43 402.228C177.072 414.67 179.686 426.897 182.965 438.91C184.13 443.144 185.389 447.379 186.768 451.542C181.468 453.159 176.216 454.92 171.012 456.799C169.752 457.251 168.492 457.703 167.233 458.227ZM186.459 491.863C185.794 491.269 185.128 490.65 184.487 490.008C178.997 481.301 174.006 472.333 169.538 463.079C175.908 461.033 182.277 459.035 188.693 457.132C191.069 463.888 193.707 470.572 196.631 477.114C199.53 483.656 202.691 490.079 206.089 496.359C205.447 496.549 204.782 496.74 204.14 496.93C201.36 497.763 198.603 498.667 195.87 499.618C192.614 497.168 189.454 494.599 186.459 491.863ZM203.784 505.423C202.833 504.805 201.907 504.138 200.98 503.472C203 502.949 205.02 502.378 207.04 501.879C207.658 501.736 208.252 501.569 208.87 501.427C209.298 502.164 209.702 502.902 210.129 503.615C211.888 506.636 213.718 509.657 215.571 512.584C211.555 510.395 207.61 508.016 203.784 505.423ZM214.882 493.886C207.8 481.373 201.621 468.384 196.536 454.944C199.815 454.04 203.118 453.184 206.422 452.375C213.908 450.567 221.418 448.973 228.999 447.593C233.395 461.129 238.505 474.451 244.161 487.534C241.665 487.963 239.17 488.391 236.698 488.89C230.305 490.127 223.96 491.555 217.663 493.149C216.712 493.386 215.785 493.648 214.882 493.886ZM256.257 528.141C248.867 526.429 241.594 524.192 234.489 521.433C233.586 521.076 232.683 520.719 231.78 520.338H231.756C229.95 517.841 228.191 515.319 226.48 512.75C223.961 508.991 221.513 505.137 219.16 501.26C218.756 500.594 218.376 499.928 217.972 499.262C225.054 497.668 232.183 496.217 239.337 495.004C241.832 494.575 244.327 494.219 246.847 493.862C247.061 494.314 247.251 494.79 247.465 495.242C250.103 501.094 252.812 506.874 255.664 512.607C258.516 518.412 261.462 524.168 264.504 529.901C261.748 529.354 258.991 528.784 256.257 528.141ZM274.414 531.543H274.39C272.394 527.903 270.445 524.216 268.52 520.553C263.981 511.822 259.632 502.973 255.545 494.004C255.355 493.576 255.164 493.148 254.974 492.72C258.729 492.244 262.484 491.792 266.215 491.435C272.68 490.841 279.144 490.412 285.608 490.151C286.368 490.127 287.105 490.127 287.865 490.103C287.889 490.412 287.937 490.698 287.961 491.007C288.935 499.024 289.981 507.04 291.145 515.033C292.048 521.195 292.975 527.356 293.973 533.493C287.414 533.16 280.878 532.495 274.414 531.543ZM295.185 482.515C293.64 468.741 292.381 454.944 291.383 441.122C296.872 440.98 302.386 440.956 307.875 441.051C315.266 441.17 322.943 441.289 330.31 440.504C332.021 440.314 332.187 437.483 330.523 437.055C324.154 435.461 317.144 434.818 310.609 434.604C304.05 434.39 297.466 434.485 290.883 434.676C290.693 432.13 290.527 429.609 290.384 427.063C289.648 414.622 289.077 402.181 288.721 389.739C304.216 389.263 319.734 389.287 335.253 389.81C335.229 390.144 335.205 390.477 335.181 390.81C334.73 396.923 334.278 403.037 333.755 409.151C333.256 415.24 333.28 421.306 332.686 427.396C332.377 430.655 337.225 430.988 337.724 427.801C338.603 422.234 339.958 416.763 340.623 411.196C341.313 405.677 341.954 400.134 342.453 394.591C342.596 393.093 342.715 391.618 342.834 390.119C356.808 390.762 370.757 391.808 384.66 393.283C383.424 399.706 382.117 406.105 380.786 412.504C377.436 428.561 373.823 444.618 368.69 460.2C365.695 469.24 362.178 478.089 358.138 486.701C351.104 485.535 343.998 484.583 336.868 483.917C335.632 483.798 334.397 483.727 333.161 483.608C333.517 481.515 333.898 479.421 334.183 477.304C335.371 469.073 336.821 460.771 335.205 452.54C334.729 450.09 331.022 449.685 330.214 452.136C327.909 459.153 327.647 466.409 326.721 473.712C326.317 476.828 325.865 479.921 325.366 483.013C315.408 482.442 305.285 482.253 295.185 482.515ZM312.818 533.707C309.206 533.85 305.618 533.85 302.006 533.803C301.602 531.424 301.245 529.021 300.889 526.642C299.106 514.724 297.514 502.782 296.088 490.817C296.064 490.531 296.017 490.246 295.993 489.936C305.38 489.794 314.767 490.032 324.155 490.555C324.107 490.864 324.06 491.173 323.988 491.459C323.727 492.91 323.465 494.361 323.157 495.788C320.614 508.634 317.144 521.313 312.818 533.707ZM330.928 532.304C327.268 532.756 323.584 533.113 319.901 533.351C321.398 529.307 322.8 525.191 324.083 521.076C327.101 511.513 329.668 501.807 331.664 491.983C331.736 491.673 331.783 491.34 331.855 491.031C333.067 491.126 334.302 491.198 335.514 491.293C342.026 491.816 348.538 492.53 355.025 493.362C354.835 493.743 354.645 494.124 354.455 494.528C353.409 496.574 352.34 498.596 351.247 500.618C345.187 511.727 338.2 522.051 330.928 532.304ZM354.479 527.974C350.368 529.021 346.185 529.925 341.955 530.639C345.781 525.334 349.298 519.791 352.673 514.296C356.356 508.277 359.731 502.116 362.868 495.788C363.082 495.36 363.272 494.932 363.486 494.504C366.029 494.86 368.595 495.217 371.138 495.645C372.374 495.812 373.586 496.002 374.822 496.216C376.414 496.478 377.982 496.763 379.575 497.049C379.218 497.572 378.862 498.072 378.505 498.571C376.2 501.759 373.871 504.923 371.447 508.016C366.076 514.914 360.373 521.528 354.479 527.974ZM408.426 503.686C407.594 504.257 406.786 504.828 405.954 505.399C396.329 511.869 385.967 517.269 375.202 521.432C373.135 522.241 371.019 523.002 368.904 523.716C369.474 523.074 370.021 522.431 370.591 521.789C376.461 514.962 382.022 507.825 387.227 500.475C387.655 499.88 388.059 499.285 388.463 498.714C388.653 498.738 388.843 498.786 389.033 498.809C392.36 499.499 395.688 500.213 398.967 500.974C402.246 501.735 405.526 502.568 408.806 503.424C408.663 503.519 408.545 503.615 408.426 503.686ZM466.888 438.147C464.012 442.453 461.089 446.782 458.095 451.017C448.969 448.043 439.558 446.568 429.791 446.901C427.914 446.973 427.605 449.732 429.577 449.899C438.037 450.541 446.498 452.872 454.483 456.036C445.12 468.906 434.925 481.204 423.256 491.838C419.834 494.954 416.246 497.928 412.514 500.734C408.926 499.45 405.314 498.213 401.702 497.071C398.541 496.072 395.404 495.144 392.219 494.264C392.005 494.216 391.815 494.169 391.601 494.097C393.788 490.838 395.927 487.556 397.994 484.249C414.059 458.272 426.203 429.797 433.761 400.227C434.901 400.417 436.018 400.631 437.159 400.822C442.578 401.821 447.996 402.891 453.415 404.033C452.63 406.222 451.846 408.434 451.062 410.622C449.85 413.929 448.376 417.259 447.592 420.708C447.141 422.754 449.683 424.3 451.014 422.421C452.773 419.923 454.032 417.045 455.292 414.262C456.647 411.312 457.977 408.315 459.166 405.293C466.889 406.982 474.565 408.79 482.266 410.717C478.083 420.327 472.663 429.416 466.888 438.147ZM491.889 373.016C490.558 383.768 488.396 394.449 484.664 404.654C476.941 402.632 469.193 400.824 461.399 399.159C462.824 395.068 464.132 390.952 465.344 386.837C468.694 375.442 471.214 363.762 472.687 351.963C473.899 352.367 475.111 352.795 476.323 353.247C482.098 355.412 487.659 358.029 493.077 360.931C492.792 364.951 492.364 368.971 491.889 373.016ZM493.648 352.581C492.388 351.939 491.129 351.296 489.845 350.702C484.498 348.156 479.056 346.039 473.519 344.231C474.374 333.716 474.279 323.179 473.067 312.688C472.568 308.382 471.855 304.1 470.928 299.889C477.487 301.554 484.023 303.315 490.511 305.194C490.844 305.289 491.176 305.384 491.509 305.503C491.866 307.763 492.792 309.761 492.887 312.045C493.529 325.605 494.361 339.046 493.648 352.581ZM423.47 163.344C424.445 159.586 426.417 155.922 428.176 152.473C429.934 148.999 431.836 145.36 433.879 142.03C437.587 136.035 442.245 130.421 446.522 124.807C451.038 118.931 455.814 113.222 460.639 107.608C465.297 102.16 470.05 96.8081 475.135 91.7644C477.678 89.2429 480.174 86.5785 482.954 84.3183C485.545 82.2011 488.349 79.5131 491.534 78.395C493.316 77.7765 494.861 79.9174 494.338 81.5113C493.649 83.5571 492.175 85.2223 490.916 86.935C489.538 88.8143 488.183 90.6698 486.686 92.4302C483.715 95.9033 480.768 99.4 477.75 102.849C471.808 109.629 465.82 116.362 460.069 123.308C454.318 130.23 448.567 137.2 443.005 144.289C440.177 147.905 436.874 151.021 433.856 154.447C430.98 157.706 427.748 161.298 424.231 163.867C423.827 164.177 423.352 163.82 423.47 163.344ZM352.386 118.717C352.268 113.365 352.268 108.036 352.553 102.684C352.862 97.1884 353.218 91.6932 353.884 86.2458C354.193 83.6528 354.525 81.0599 354.882 78.4909C355.333 75.1843 355.809 72.3298 358.28 69.9511C359.659 68.6189 362.059 69.0709 362.938 70.7362C365.457 75.4463 363.342 81.7028 362.677 86.7458C362.011 91.9555 361.227 97.1412 360.585 102.351C359.92 107.727 359.207 113.103 358.494 118.48C358.161 121.073 358.138 123.975 357.329 126.473C356.45 129.113 355.785 131.754 355.238 134.513C355.167 134.894 354.596 134.965 354.525 134.537C354.05 131.73 353.479 128.994 352.838 126.234C352.244 123.832 352.434 121.167 352.386 118.717ZM306.448 53.1108C306.092 49.3046 305.189 45.2841 306.543 41.6448C307.494 39.0518 310.94 38.6949 312.366 41.0738C314.41 44.5232 314.22 48.8524 314.576 52.7542C314.909 56.4414 315.242 60.1047 315.527 63.7921C316.073 71.1663 316.644 78.5412 317.19 85.8917C317.761 93.409 318.474 100.926 318.735 108.467C318.878 112.178 318.925 115.817 318.783 119.528C318.711 121.527 318.711 123.501 318.569 125.499C318.426 127.379 318.188 129.115 317.951 130.947C317.903 131.304 317.309 131.47 317.19 131.09C316.572 129.139 315.978 127.26 315.455 125.262C314.933 123.358 314.624 121.384 314.196 119.457C313.412 115.865 312.865 112.297 312.318 108.681C311.249 101.378 310.631 94.0033 309.871 86.6766C309.086 79.1592 308.278 71.6662 307.494 64.1489C307.114 60.4855 306.781 56.7982 306.448 53.1108ZM105.541 130.02C103.996 128.188 105.731 125.167 108.155 126C113.383 127.807 117.4 130.995 121.654 134.468C125.67 137.751 129.52 141.248 133.204 144.911C140.428 152.119 148.033 160.588 151.099 170.531C151.55 171.958 149.554 173.267 148.413 172.339C144.539 169.151 141.117 165.369 137.838 161.587C134.606 157.852 131.302 154.164 127.856 150.62C124.315 146.98 120.632 143.507 116.758 140.201C112.861 136.847 108.844 133.945 105.541 130.02ZM54.5174 179.001C54.4461 177.954 55.5868 177.24 56.4899 177.264C59.9596 177.359 63.0015 180.333 65.7818 182.212C68.9426 184.329 72.0555 186.446 75.3116 188.397C81.657 192.203 88.2398 195.438 94.7751 198.888C101.809 202.599 108.939 206.167 116.14 209.545C123.507 212.995 131.135 216.42 138.051 220.726C138.883 221.249 138.384 222.748 137.386 222.581C129.377 221.297 121.368 218.561 113.811 215.659C106.088 212.685 98.4352 209.522 90.8304 206.191C83.7482 203.098 76.7378 199.387 70.2736 195.153C67.0654 193.036 63.8333 190.752 60.9337 188.207C58.177 185.733 54.779 182.949 54.5174 179.001ZM40.6146 251.129C40.068 250.13 40.5908 249.012 41.4701 248.465C42.5158 247.846 43.205 247.157 44.4882 246.99C45.8904 246.823 47.3638 247.299 48.6947 247.656C50.9999 248.298 53.3051 248.964 55.6102 249.607C60.387 250.915 65.14 252.2 69.9407 253.389C74.8839 254.602 79.7558 256.03 84.6753 257.314C89.3808 258.551 94.2525 259.455 98.8154 261.192C99.5283 261.477 99.5521 262.738 98.6728 262.809C93.7058 263.214 88.7153 262.572 83.7722 262.12C78.7577 261.668 73.7435 261.144 68.7767 260.264C63.6196 259.36 58.4627 258.361 53.3772 257.219C50.9056 256.672 48.4103 256.125 45.9622 255.482C44.7739 255.173 43.4668 254.793 42.4687 254.031C41.4231 253.223 41.2087 252.223 40.6146 251.129ZM26.9496 292.021C31.964 288.596 38.8083 289.452 44.6068 289.5C49.8351 289.547 55.0875 289.928 60.2916 290.285C65.8051 290.666 70.9621 291.498 76.2855 292.973C81.395 294.4 86.7662 294.638 91.8517 296.066C92.6834 296.303 92.5883 297.755 91.7091 297.826C86.1956 298.23 80.7058 297.54 75.1926 298.302C69.8692 299.039 64.6882 299.134 59.3174 299.015C53.8038 298.896 48.2666 298.896 42.7528 298.754C37.3343 298.611 31.4405 299.087 26.7352 295.994C25.1667 294.948 25.595 292.949 26.9496 292.021ZM51.4992 383.607C39.3315 387.033 27.2349 390.673 14.996 393.789C11.7878 394.598 8.10422 396.073 4.77696 395.906C2.80445 395.835 -0.0235787 394.36 0.000148328 392.1C0.0714391 388.389 4.32541 387.104 7.17728 386.319C10.1479 385.487 13.1898 384.844 16.1844 384.107C28.4945 381.086 40.9713 378.635 53.3532 375.9C65.6633 373.188 78.0689 370.88 90.6406 369.81C90.9495 369.786 91.1397 370.214 90.807 370.357C78.0929 375.852 64.8314 379.872 51.4992 383.607ZM128.929 462.964C118.116 474.24 107.397 485.587 96.4176 496.673C91.6171 501.526 86.6737 506.307 82.0633 511.375C79.9245 513.706 77.8569 516.108 76.027 518.654C73.6742 521.889 71.6067 526.219 67.4956 527.408C65.737 527.931 64.0021 526.623 63.5268 525.005C62.4099 521.175 65.0003 517.369 67.1629 514.443C69.3018 511.565 71.5832 508.781 74.0073 506.141C78.7365 501.002 83.8935 496.435 89.2406 491.963C101.789 481.472 114.526 471.267 127.217 460.967C128.548 459.896 130.093 461.775 128.929 462.964ZM186.844 518.606C184.943 528.716 183.089 538.636 179.857 548.436C178.431 552.813 177.077 557.238 175.484 561.544C174.629 563.851 173.987 566.539 172.68 568.657C171.302 570.893 168.117 573.724 165.67 571.202C162.39 567.824 166.002 560.925 167.286 557.357C168.878 553.004 170.589 548.651 172.3 544.369C175.984 535.186 180.594 526.718 185.323 518.059C185.727 517.345 186.986 517.821 186.844 518.606ZM203.527 543.346C203.598 546.557 203.551 549.626 202.98 552.79C202.41 555.978 201.792 559.165 201.174 562.329C200.556 565.517 199.772 568.633 198.964 571.773C198.061 575.294 197.206 578.601 195.613 581.884C194.069 585.048 188.816 583.311 189.078 579.933C189.339 576.436 190.29 573.248 191.241 569.895C192.144 566.778 192.999 563.662 194.092 560.594C195.209 557.406 196.35 554.218 197.515 551.031C198.608 548.057 200.176 545.393 201.816 542.705C202.339 541.848 203.503 542.489 203.527 543.346ZM521.957 543.584C524.666 547.081 528.064 550.601 527.898 555.264C527.803 557.833 525.497 559.237 523.121 558.737C518.772 557.833 516.158 553.599 513.568 550.292C511.096 547.128 508.624 543.941 506.177 540.729C501.329 534.306 496.457 527.907 491.585 521.509C488.876 517.917 486.191 514.348 483.648 510.637C481.366 507.33 479.394 503.81 477.207 500.432C472.906 493.795 468.081 487.205 465.04 479.902C464.897 479.545 465.301 479.164 465.634 479.402C471.907 484.089 477.088 490.322 482.412 496.078C487.83 501.954 493.296 507.616 498.287 513.872C503.396 520.248 508.506 526.647 513.592 533.022C516.443 536.543 519.224 540.039 521.957 543.584ZM529.276 466.602C529.989 469.004 528.349 471.026 526.258 471.835C523.905 472.739 521.552 471.169 519.508 470.099C518.106 469.361 516.752 468.552 515.421 467.72C512.498 465.864 509.646 463.914 506.961 461.725C504.394 459.632 501.875 457.419 499.57 455.016C498.453 453.851 497.455 452.661 496.504 451.353C495.981 450.687 495.458 450.021 495.126 449.236C494.793 448.451 494.579 447.618 494.27 446.809C493.866 445.762 494.746 444.502 495.934 444.954C497.455 445.548 498.881 445.953 500.283 446.833C501.661 447.713 502.992 448.617 504.347 449.545C506.913 451.329 509.456 453.113 512.094 454.755C514.827 456.467 517.56 458.204 520.388 459.75C521.838 460.559 523.311 461.368 524.761 462.153C526.781 463.271 528.563 464.151 529.276 466.602ZM489.469 184.518C491.37 182.044 492.796 179.309 494.745 176.859C496.765 174.289 499.07 172.101 501.423 169.841C506.224 165.298 511.262 161.135 516.491 157.115C521.386 153.332 526.472 149.764 531.605 146.339C534.172 144.626 536.786 142.937 539.4 141.295C542.038 139.654 545.104 137.608 548.146 136.847C548.526 136.752 548.882 136.704 549.263 136.704H549.69C549.833 136.704 549.976 136.728 550.118 136.752C551.211 136.871 552.305 137.275 553.017 138.108C552.946 138.084 552.875 138.084 552.804 138.06C554.681 139.821 555.275 142.937 553.089 145.173C550.902 147.409 547.765 149.051 545.104 150.621C542.442 152.215 539.804 153.832 537.19 155.497C532.08 158.756 527.066 162.158 522.099 165.655C517.156 169.128 512.26 172.721 507.364 176.265C504.869 178.049 502.469 180.047 499.831 181.618C497.074 183.259 494.079 184.448 491.418 186.232C490.23 186.97 488.519 185.779 489.469 184.518ZM552.614 213.303C555.893 211.614 559.196 210.044 562.547 208.545C564.163 207.808 565.708 207.189 567.419 206.713C568.417 206.428 569.416 206.047 570.485 206.024C571.341 206 572.149 206.333 573.004 206.38C576.545 206.571 577.567 210.401 575.547 212.898C574.905 213.683 574.573 214.564 573.741 215.277C573.028 215.872 572.22 216.324 571.436 216.824C570.105 217.704 568.726 218.346 567.3 219.036C564.187 220.558 561.05 222.009 557.913 223.508C551.758 226.434 545.745 229.598 539.661 232.667C533.554 235.735 527.494 238.875 521.434 242.04C518.344 243.657 515.255 245.299 512.046 246.678C510.43 247.368 508.838 248.082 507.198 248.748C506.556 249.01 506.034 249.271 505.321 249.319C504.703 249.366 504.204 249.152 503.61 249.343C502.992 249.533 502.184 248.891 502.706 248.272C503.229 247.677 503.229 247.011 503.61 246.345C503.942 245.727 504.489 245.299 504.988 244.799C506.2 243.61 507.412 242.444 508.648 241.302C511.191 238.971 514.019 236.925 516.823 234.903C522.432 230.859 528.159 227.101 534.076 223.484C540.065 219.797 546.363 216.515 552.614 213.303ZM601.213 285.833C594.654 287.808 587.477 287.974 580.728 289.069C573.883 290.163 567.11 291.733 560.48 293.755C554.087 295.729 547.98 298.465 541.563 300.344C538.355 301.296 535.028 301.867 531.724 302.2C528.421 302.557 525.331 301.534 522.076 301.034C520.674 300.82 520.317 298.56 521.909 298.37C525.237 297.989 528.183 296.229 531.321 295.063C534.125 294.016 536.834 292.613 539.52 291.304C545.651 288.331 551.735 285.262 558.175 282.955C564.663 280.623 571.46 279.101 578.209 277.84C585.101 276.556 592.516 274.819 599.527 275.104C605.611 275.39 607.25 284.001 601.213 285.833ZM530.774 328.034C529.135 327.273 528.683 324.181 531.012 323.966C537.975 323.3 544.796 323.586 551.783 323.99C558.913 324.395 566.042 324.3 573.148 324.704C574.526 324.775 575.786 325.299 576.689 326.203C577.806 326.607 578.78 327.107 579.802 327.868C580.824 328.629 581.133 330.27 580.04 331.151C578.923 332.055 577.901 332.626 576.689 333.101C575.809 334.005 574.645 334.552 573.219 334.648C566.066 335.052 558.889 334.338 551.807 333.482C544.464 332.602 537.452 331.198 530.774 328.034ZM584.079 424.327C585.22 425.779 584.555 427.634 582.844 428.157C580.943 428.752 578.899 428.562 576.926 428.348C575.952 428.681 574.954 428.752 573.575 428.514C572.221 428.276 570.914 427.92 569.607 427.563C566.66 426.802 563.737 425.921 560.837 424.994C555.324 423.209 549.787 421.402 544.296 419.57C539.377 417.928 534.41 416.049 529.824 413.599C525.76 411.434 518.773 407.723 518.131 402.632C517.917 400.872 518.987 399.444 520.816 399.421C523.193 399.397 525.712 400.943 527.732 402.085C529.918 403.298 532.224 404.321 534.553 405.225C538.973 406.962 543.536 408.223 548.075 409.578C553.541 411.22 559.031 412.742 564.449 414.431C567.23 415.288 570.01 416.215 572.743 417.215C575.168 418.095 577.758 418.808 579.279 420.712C581.061 421.711 582.844 422.757 584.079 424.327ZM184.4 92.9529C186.04 94.5944 187.989 95.0702 189.985 95.9979C191.839 96.8781 193.692 97.8058 195.427 98.9239C198.73 101.017 201.677 103.61 204.22 106.702C209.044 112.507 211.706 119.048 213.322 126.566C213.536 127.565 213.75 128.588 214.225 129.492C214.986 130.943 216.792 131.918 218.218 130.967C219.596 130.039 219.81 127.684 220 126.138C220.879 118.573 222.899 111.817 227.106 105.608C229.364 102.301 232.002 99.3994 235.115 97.0201C236.731 95.7593 238.49 94.6413 240.248 93.5708C242.126 92.4527 244.051 91.7866 245.5 89.9787C245.904 89.5029 246.023 88.9796 245.999 88.4801V88.3849V88.2897C245.975 87.7902 245.809 87.2906 245.358 86.8387C243.718 85.1972 241.769 84.7214 239.773 83.7937C237.919 82.9135 236.065 81.9857 234.331 80.8677C231.003 78.7743 228.081 76.1814 225.538 73.0891C220.737 67.3085 218.075 60.7906 216.459 53.3445C216.127 51.822 215.675 49.4908 214.202 48.7057C212.681 47.8969 210.97 49.0626 210.375 50.5613C209.995 51.5128 209.876 52.5357 209.758 53.5586C208.878 61.171 206.882 67.9508 202.628 74.207C200.37 77.5136 197.732 80.4156 194.619 82.7949C193.003 84.0557 191.244 85.1737 189.486 86.2443C187.608 87.3623 185.683 88.0284 184.234 89.8363C183.83 90.3121 183.711 90.8354 183.735 91.335V91.4301V91.5253C183.782 92.0011 183.948 92.5248 184.4 92.9529ZM198.92 88.79C202.651 86.1256 206.003 82.7477 208.759 78.9652C210.827 76.1581 212.538 73.0418 213.892 69.7354C215.532 72.8755 217.552 75.8252 219.881 78.4183C222.995 81.9152 226.654 84.96 230.647 87.2437C231.716 87.8622 232.786 88.4332 233.903 88.9565C232.857 89.575 231.811 90.2649 230.837 90.9785C227.106 93.6429 223.755 97.0209 220.998 100.803C218.93 103.61 217.219 106.727 215.889 110.033C214.225 106.893 212.205 103.943 209.876 101.35C206.763 97.8533 203.103 94.8085 199.111 92.5248C198.041 91.9063 196.972 91.3354 195.855 90.812C196.9 90.1935 197.922 89.5036 198.92 88.79ZM236.73 34.5042C237.063 34.6707 237.396 34.8135 237.728 35.0038C239.226 35.8126 240.414 36.5262 241.412 37.2399C243.575 38.7624 245.523 40.6893 247.211 42.9492C250.086 46.8267 251.869 51.3228 252.796 57.127C252.914 57.9121 253.033 58.697 253.39 59.4821C253.794 60.3623 254.554 61.0521 255.41 61.3376C255.624 61.409 255.861 61.4566 256.075 61.4566C256.574 61.4803 257.073 61.3614 257.501 61.0997C258.856 60.2909 259.165 58.4354 259.402 57.0557C260.4 51.3226 262.207 46.8503 265.106 43.0203C266.817 40.7842 268.766 38.8811 270.952 37.3587C271.974 36.645 273.138 35.9551 274.659 35.1701C274.992 35.0036 275.325 34.837 275.658 34.6943C276.727 34.1947 277.844 33.6714 278.818 32.6247C279.246 32.1489 279.484 31.5781 279.484 30.8881V30.793C279.484 30.1507 279.27 29.5797 278.842 29.0802C277.892 28.0097 276.775 27.4864 275.705 26.963C275.372 26.7965 275.04 26.6537 274.707 26.4634C273.21 25.6546 272.022 24.941 271.023 24.2273C268.861 22.7048 266.912 20.7779 265.225 18.518C262.349 14.6643 260.591 10.1919 259.64 4.29269C259.45 3.05571 259.141 1.17638 257.786 0.367579C257.168 -0.0130387 256.408 -0.108193 255.695 0.129696C254.816 0.391372 254.055 1.08124 253.651 1.96141C253.295 2.72264 253.152 3.53144 253.033 4.31649C252.059 10.0971 250.229 14.5694 247.306 18.4231C245.595 20.6592 243.622 22.5623 241.46 24.0848C240.438 24.7984 239.273 25.4883 237.752 26.2734C237.42 26.4399 237.087 26.6064 236.754 26.7491C235.685 27.2487 234.568 27.772 233.593 28.8187C233.166 29.2945 232.928 29.8892 232.952 30.3887V30.6742C232.928 31.3165 233.166 31.8874 233.593 32.387C234.544 33.4575 235.661 33.9808 236.73 34.5042ZM245.357 30.1509C248.138 28.3906 250.799 26.0117 253.01 23.2998C254.222 21.8249 255.339 20.1597 256.313 18.3756C257.264 20.1597 258.333 21.825 259.545 23.3236C261.731 26.0593 264.369 28.462 267.126 30.2697C267.411 30.46 267.696 30.6503 268.005 30.8169C267.696 31.0072 267.411 31.1737 267.126 31.364C264.346 33.1243 261.708 35.5032 259.474 38.2151C258.238 39.7138 257.145 41.3552 256.194 43.1393C255.244 41.3552 254.15 39.69 252.938 38.1913C250.728 35.4319 248.114 33.0292 245.357 31.2452C245.048 31.0549 244.763 30.8646 244.478 30.698C244.763 30.5077 245.048 30.3174 245.357 30.1509ZM73.8653 451.497C74.8872 450.784 76.0517 450.094 77.5727 449.309C77.9054 449.142 78.2382 448.976 78.5708 448.833C79.6402 448.333 80.7572 447.81 81.7316 446.763C82.1593 446.288 82.397 445.717 82.397 445.027V444.932C82.4207 444.289 82.1831 443.718 81.7553 443.219C80.8047 442.148 79.6878 441.625 78.6183 441.102C78.2856 440.935 77.9529 440.792 77.6202 440.602C76.123 439.793 74.9347 439.08 73.9366 438.366C71.774 436.844 69.8253 434.917 68.1379 432.657C65.2623 428.803 63.5037 424.331 62.5531 418.431C62.363 417.194 62.054 415.315 60.6994 414.506C60.0815 414.126 59.3211 414.031 58.6081 414.268C57.7288 414.554 56.9445 415.22 56.5405 416.124C56.1841 416.885 56.0415 417.694 55.9227 418.479C54.9483 424.26 53.1184 428.732 50.1953 432.586C48.4842 434.822 46.5117 436.725 44.349 438.247C43.3271 438.961 42.1626 439.651 40.6416 440.436C40.3089 440.602 39.9762 440.769 39.6435 440.912C38.5741 441.411 37.4571 441.935 36.4828 442.981C36.055 443.457 35.8173 444.052 35.8411 444.551L35.8173 444.813C35.7936 445.455 36.0312 446.026 36.459 446.526C37.4096 447.596 38.5265 448.12 39.596 448.643C39.9287 448.809 40.2614 448.952 40.5941 449.142C42.0913 449.951 43.2796 450.665 44.2777 451.379C46.4403 452.877 48.389 454.804 50.0763 457.064C52.9519 460.942 54.7343 465.438 55.6611 471.242C55.78 472.027 55.8988 472.812 56.2553 473.597C56.6593 474.477 57.4198 475.167 58.2753 475.452C58.4892 475.524 58.7268 475.571 58.9407 475.571C59.4398 475.595 59.9389 475.476 60.3667 475.215C61.7213 474.406 62.0303 472.55 62.2679 471.171C63.266 465.437 65.0722 460.965 67.9715 457.135C69.7064 454.899 71.679 452.996 73.8653 451.497ZM62.3157 452.33C61.08 453.829 59.9867 455.47 59.0361 457.254C58.0855 455.47 56.9923 453.805 55.7803 452.306C53.5939 449.57 50.956 447.168 48.1992 445.36C47.8903 445.17 47.6051 444.979 47.3199 444.813C47.6288 444.623 47.914 444.456 48.1992 444.266C50.9797 442.505 53.6414 440.126 55.8515 437.415C57.0635 435.94 58.1804 434.275 59.1548 432.49C60.1054 434.275 61.1749 435.94 62.3869 437.438C64.5733 440.174 67.2112 442.577 69.968 444.384C70.2532 444.575 70.5384 444.765 70.8473 444.932C70.5384 445.122 70.2532 445.288 69.968 445.479C67.1875 447.239 64.5496 449.618 62.3157 452.33ZM467.678 561.351C466.133 559.638 464.184 559.043 462.259 558.02C460.453 557.069 458.647 556.022 456.959 554.833C453.751 552.597 450.947 549.837 448.547 546.625C444.031 540.631 441.702 533.994 440.443 526.453C440.182 524.906 439.849 522.551 438.423 521.719C436.949 520.839 435.191 521.909 434.502 523.384C434.074 524.312 433.908 525.335 433.741 526.358C432.505 533.922 430.153 540.583 425.614 546.625C423.214 549.837 420.409 552.596 417.201 554.833C415.514 556.022 413.708 557.045 411.901 558.02C409.953 559.043 408.028 559.614 406.483 561.351C406.079 561.803 405.913 562.326 405.913 562.826V562.921V563.016C405.913 563.516 406.055 564.039 406.483 564.491C408.028 566.204 409.976 566.798 411.901 567.821C413.708 568.773 415.514 569.82 417.201 571.009C420.409 573.245 423.214 576.005 425.614 579.216C430.153 585.259 432.482 591.919 433.741 599.484C433.908 600.507 434.074 601.53 434.502 602.458C435.167 603.932 436.949 605.003 438.423 604.123C439.849 603.266 440.182 600.911 440.443 599.389C441.702 591.872 444.055 585.211 448.547 579.216C450.947 576.005 453.751 573.245 456.959 571.009C458.647 569.819 460.453 568.797 462.259 567.821C464.208 566.798 466.133 566.227 467.678 564.491C468.082 564.039 468.248 563.515 468.248 563.016V562.921V562.826C468.248 562.326 468.105 561.803 467.678 561.351ZM452.967 564.8C449.093 567.274 445.6 570.509 442.653 574.149C440.443 576.838 438.589 579.882 437.092 583.118C435.571 579.906 433.717 576.862 431.507 574.149C428.56 570.51 425.043 567.298 421.193 564.8C420.171 564.134 419.102 563.516 418.032 562.945C419.125 562.374 420.171 561.755 421.193 561.089C425.067 558.615 428.56 555.38 431.507 551.74C433.717 549.052 435.571 546.007 437.092 542.771C438.589 545.983 440.443 549.028 442.653 551.74C445.6 555.38 449.117 558.591 452.967 561.089C453.989 561.755 455.058 562.374 456.127 562.945C455.058 563.492 453.989 564.134 452.967 564.8ZM359.829 595.06C360.779 598.937 363.037 604.076 360.993 607.858C360.352 609.047 358.522 609.333 357.452 608.595C354.006 606.24 353.674 600.555 352.842 596.773C351.939 592.633 351.273 588.447 350.656 584.236C350.038 580.025 349.586 575.815 349.063 571.581C348.778 569.321 348.493 567.061 348.255 564.801C348.065 563.017 347.804 561.09 348.422 559.377C348.564 558.973 349.135 558.877 349.42 559.211C350.632 560.685 351.06 562.755 351.535 564.587C352.058 566.609 352.581 568.655 353.127 570.7C354.197 574.768 355.409 578.788 356.549 582.833C357.69 586.948 358.831 590.992 359.829 595.06ZM318.929 583.403C319.119 586.805 319.262 590.183 319.095 593.585C318.953 596.844 318.572 601.696 316.505 604.384C315.554 605.621 313.677 606.002 312.536 604.694C310.183 602.005 309.47 597.105 309.161 593.656C308.852 590.278 308.781 586.9 308.781 583.498C308.781 579.906 308.971 576.457 309.613 572.912C310.255 569.415 311.158 566.084 312.108 562.683C312.489 561.327 314.2 561.826 314.556 562.873C315.673 566.251 316.766 569.534 317.622 573.007C318.43 576.433 318.715 579.882 318.929 583.403Z" fill="#DD7F8A"/>
</svg>
