<svg width="89" height="73" viewBox="0 0 89 73" fill="none" xmlns="http://www.w3.org/2000/svg">
<path d="M75.2749 13.0967C64.627 11.707 37.056 7.85884 37.2755 23.3074C24.4129 14.62 12.2133 39.9257 7.60585 49.6132C7.14889 50.5751 7.40635 51.9417 8.60756 52.2227C22.7086 55.5194 38.9024 61.0267 52.7058 54.3989C67.2322 47.4236 72.0263 29.3284 76.9051 15.367C77.2604 14.3503 76.6909 13.5974 75.9147 13.3036C75.7273 13.2042 75.517 13.1291 75.2749 13.0967ZM38.7397 29.6035C39.8094 30.9489 42.2722 29.6185 41.7354 27.9869C40.739 24.9587 40.6746 21.663 42.2864 18.8398C44.4972 14.966 51.6451 15.3752 55.311 15.3103C60.1781 15.2241 65.0892 15.5194 69.9572 16.0197C62.2384 22.2334 54.2655 28.2313 45.8132 33.378C35.7691 39.4947 24.1035 43.4341 12.7943 46.8843C18.1649 35.8262 28.6688 16.9294 38.7397 29.6035ZM14.4666 50.0477C25.3992 46.6577 36.4673 42.7212 46.3821 37.1355C55.4169 32.0448 63.843 25.519 71.9446 18.9517C67.9056 30.7779 63.5054 43.1734 52.7829 50.2927C42.012 57.4434 26.8427 53.235 14.4666 50.0477Z" fill="#DD7F8A"/>
<path d="M59.7662 33.9039C57.7036 38.3595 55.2164 41.8102 51.3576 44.9193C49.5864 46.3471 52.0385 48.8892 53.8005 47.4691C57.8904 44.1737 60.5958 40.4609 62.7812 35.7398C63.7268 33.7013 60.7241 31.836 59.7662 33.9039Z" fill="#DD7F8A"/>
</svg>
