<svg width="222" height="223" viewBox="0 0 222 223" fill="none" xmlns="http://www.w3.org/2000/svg">
<path d="M4.99602 70.5245C4.90159 69.5677 2.8249 46.9429 14.9038 32.2187C28.5619 15.5659 49.8896 15.0138 50.7904 14.9982C51.9331 14.9779 53.003 15.577 53.582 16.5657L76.58 55.7466C77.4665 57.2661 76.9595 59.2037 75.4494 60.0893C73.9394 60.9749 71.9926 60.4719 71.1067 58.9587L49.1087 21.4774C44.0489 21.9991 29.4493 24.4922 19.8095 36.2431C11.2826 46.6374 11.0042 62.3939 11.1979 67.91L52.1115 82.1104C53.7658 82.6868 54.645 84.4877 54.0692 86.1483C53.4962 87.8055 51.6856 88.6825 50.0312 88.106L7.11051 73.211C5.94155 72.8034 5.11725 71.7528 4.99602 70.5245Z" fill="#F4C0EB"/>
<path d="M47.335 47.218C47.2343 46.198 47.6278 45.1452 48.4806 44.4489C49.8375 43.3361 51.8339 43.5344 52.9467 44.8913L67.4476 62.5912C68.5576 63.9516 68.3624 65.9478 67.0052 67.0574C65.6483 68.1702 63.6518 67.9718 62.5391 66.6149L48.0381 48.915C47.628 48.4102 47.3945 47.8211 47.335 47.218Z" fill="#F4C0EB"/>
<path d="M33.104 64.5587C33.0448 63.9587 33.1583 63.3322 33.4618 62.757C34.2879 61.2087 36.2071 60.6239 37.7553 61.45L57.9485 72.2111C59.4961 73.0309 60.0812 74.9532 59.2554 76.5046C58.4293 78.0529 56.5102 78.6376 54.9619 77.8116L34.7688 67.0504C33.7964 66.5342 33.2047 65.5787 33.104 64.5587Z" fill="#F4C0EB"/>
<path d="M204.972 200.1L216.701 185.802C221.005 180.557 220.198 172.257 214.924 167.928L114.005 86.1924L113.995 86.1871L82.7944 60.592C81.4379 59.4792 79.4422 59.6762 78.3293 61.0327L55.5605 88.788C55.0055 89.4645 54.7758 90.3034 54.8556 91.1118C54.9354 91.9202 55.3246 92.698 56.0012 93.253L87.2258 118.868C88.5823 119.981 90.5781 119.784 91.6909 118.427L112.459 93.111L210.914 172.848C213.537 175 213.947 179.155 211.795 181.778L200.067 196.075C198.991 197.387 197.47 198.2 195.784 198.367C194.098 198.533 192.448 198.033 191.154 196.968L99.4193 120.748C99.241 120.427 99.008 120.135 98.7097 119.89C97.3531 118.777 95.452 118.866 94.3392 120.223C93.6968 120.853 93.3521 121.723 93.3866 122.622C93.3929 122.685 93.3925 122.746 93.3987 122.809C93.4807 123.639 93.8876 124.403 94.5272 124.939L187.112 201.863C189.732 204.015 193.035 205.015 196.408 204.682C199.78 204.349 202.824 202.722 204.972 200.1ZM76.356 101.744L91.4205 83.3803C92.5333 82.0238 92.3364 80.0281 90.9798 78.9153C89.6233 77.8024 87.6276 77.9994 86.5147 79.3559L71.4503 97.7195L62.4784 90.3595L81.2229 67.51L107.542 89.1005L88.7973 111.95L76.356 101.744Z" fill="#F4C0EB"/>
</svg>
