<svg width="349" height="401" viewBox="0 0 349 401" fill="none" xmlns="http://www.w3.org/2000/svg">
<path d="M176.737 266.957C178.797 267.059 180.562 266.542 182.01 265.65C201.465 287.764 223.789 307.413 244.417 324.276C244.713 331.639 242.876 338.189 237.534 342.83C236.852 343.419 236.337 344.067 235.886 344.732C235.687 345.012 235.512 345.296 235.361 345.591C235.273 345.766 235.185 345.941 235.105 346.118C234.99 346.393 234.888 346.666 234.814 346.948C232.533 354.26 240.815 362.933 247.903 356.951C248.192 356.801 248.483 356.693 248.772 356.513C271.382 342.084 305.887 382.75 317.012 397.131C320.357 401.764 325.589 401.369 329.098 398.667C332.683 396.068 334.549 391.167 331.051 386.641C327.734 382.046 322.614 374.54 317.747 365.859C327.679 367.626 337.393 366.29 343.45 356.966C353.104 342.11 346.958 317.81 342.877 302.374C332.813 264.302 316.229 223.007 292.798 187.158C295.069 186.139 296.771 184.014 296.915 180.596C299.203 127.629 245.261 75.7451 215.512 35.9306C183.421 -7.01916 151.329 -49.969 119.234 -92.9234C112.468 -101.979 98.4289 -91.4888 105.195 -82.4337C133.874 -44.0512 162.553 -5.66874 191.232 32.7137C209.071 56.5893 226.914 80.4695 244.754 104.345C259.356 123.887 276.262 143.371 279.172 167.966C261.564 145.259 240.785 125.775 216.601 112.313C177.179 90.3727 130.837 90.5288 129.466 145.377C128.527 182.847 144.325 217.02 166.982 247.235C145.256 239.922 131.098 217.197 117.71 199.279C99.8701 175.403 82.0271 151.523 64.1875 127.647C35.5085 89.2648 6.8295 50.8823 -21.8495 12.4998C-28.6154 3.44467 -42.6543 13.9344 -35.8884 22.9895C-3.79678 65.9394 28.2949 108.889 60.39 151.844C86.724 187.078 126.93 264.525 176.737 266.957ZM260.044 336.621C262.337 326.572 261.018 315.438 257.636 304.372C267.624 310.976 278.306 315.494 288.945 315.894C286.915 324.791 287.734 334.534 290.305 344.338C289.83 345.087 289.488 345.919 289.222 346.773C279.849 340.914 269.924 336.99 260.044 336.621ZM154.412 185.703C147.366 166.816 143.099 143.227 151.11 124.035C159.434 104.091 191.094 118.873 203.362 124.888C254.833 150.128 285.436 205.901 307.92 255.775C317.026 275.974 324.389 297.199 328.678 318.955C330.105 326.203 330.78 333.646 330.319 341.021C329.598 352.549 317.086 348.706 308.022 344.744C303.281 331.04 302.318 317.62 311.45 309.688C312.132 309.098 312.648 308.451 313.099 307.786C313.302 307.502 313.472 307.222 313.624 306.927C313.712 306.752 313.8 306.577 313.875 306.404C313.99 306.128 314.092 305.855 314.166 305.574C316.447 298.262 308.165 289.588 301.076 295.57C300.787 295.72 300.496 295.829 300.207 296.008C277.593 310.441 243.093 269.772 231.968 255.39C228.623 250.758 223.391 251.153 219.882 253.855C216.296 256.453 214.431 261.355 217.929 265.88C222.024 271.556 228.858 281.669 234.58 292.948C200.617 262.904 170.556 228.967 154.412 185.703ZM34.3199 26.5497C58.2376 8.67869 82.1553 -9.19235 106.073 -27.0634C115.128 -33.8293 125.618 -19.7904 116.563 -13.0245C92.645 4.84658 68.7273 22.7176 44.8097 40.5887C35.7592 47.3511 25.2695 33.3121 34.3199 26.5497ZM103.957 11.7298C113.012 4.96388 123.502 19.0028 114.447 25.7687C100.867 35.9158 87.2864 46.0629 73.7061 56.21C64.651 62.9759 54.1612 48.9369 63.2163 42.1711C76.7967 32.024 90.377 21.8769 103.957 11.7298Z" fill="#F4C0EB"/>
</svg>
