<svg width="387" height="328" viewBox="0 0 387 328" fill="none" xmlns="http://www.w3.org/2000/svg">
<path d="M214.862 193.555C216.921 193.657 218.686 193.14 220.134 192.247C239.59 214.362 261.914 234.011 282.542 250.874C282.837 258.237 281 264.787 275.659 269.427C274.976 270.017 274.461 270.665 274.01 271.33C273.811 271.61 273.636 271.894 273.485 272.189C273.397 272.364 273.309 272.539 273.23 272.715C273.115 272.991 273.012 273.264 272.938 273.546C270.657 280.858 278.939 289.531 286.028 283.549C286.317 283.399 286.608 283.291 286.897 283.111C309.507 268.682 344.012 309.348 355.136 323.729C358.481 328.361 363.714 327.967 367.222 325.265C370.808 322.666 372.673 317.765 369.175 313.239C365.858 308.644 360.738 301.137 355.871 292.457C365.804 294.224 375.517 292.888 381.574 283.563C391.228 268.708 385.082 244.408 381.001 228.972C370.938 190.9 354.354 149.605 330.922 113.756C333.194 112.737 334.895 110.612 335.039 107.194C337.328 54.2267 283.386 2.343 253.637 -37.4715C221.545 -80.4213 189.453 -123.371 157.358 -166.326C150.592 -175.381 136.553 -164.891 143.319 -155.836C171.998 -117.453 200.677 -79.0708 229.356 -40.6884C247.196 -16.8128 265.039 7.06742 282.878 30.943C297.48 50.4852 314.386 69.9685 317.296 94.5637C299.688 71.8569 278.91 52.3725 254.726 38.9106C215.304 16.9706 168.961 17.1267 167.59 71.9753C166.651 109.445 182.45 143.618 205.107 173.833C183.38 166.52 169.223 143.795 155.834 125.876C137.995 102.001 120.152 78.1207 102.312 54.2451C73.633 15.8627 44.954 -22.5198 16.275 -60.9023C9.5091 -69.9574 -4.52985 -59.4677 2.23604 -50.4126C34.3277 -7.46275 66.4194 35.4871 98.5145 78.4415C124.848 113.676 165.054 191.123 214.862 193.555ZM298.168 263.219C300.461 253.17 299.142 242.036 295.76 230.97C305.748 237.574 316.43 242.092 327.07 242.492C325.039 251.388 325.858 261.131 328.43 270.936C327.954 271.685 327.613 272.517 327.347 273.371C317.973 267.512 308.048 263.588 298.168 263.219ZM192.536 112.301C185.49 93.4139 181.224 69.8244 189.235 50.6326C197.559 30.6889 229.219 45.4704 241.487 51.4861C292.957 76.7261 323.561 132.499 346.044 182.373C355.15 202.572 362.513 223.797 366.803 245.553C368.229 252.8 368.905 260.244 368.443 267.619C367.722 279.147 355.211 275.304 346.147 271.342C341.406 257.638 340.443 244.218 349.575 236.286C350.257 235.696 350.772 235.049 351.223 234.384C351.427 234.1 351.597 233.82 351.748 233.525C351.836 233.35 351.924 233.175 351.999 233.002C352.114 232.726 352.216 232.453 352.29 232.172C354.571 224.86 346.289 216.186 339.201 222.168C338.912 222.318 338.621 222.426 338.332 222.606C315.717 237.038 281.217 196.37 270.092 181.988C266.748 177.356 261.515 177.751 258.006 180.452C254.421 183.051 252.555 187.953 256.053 192.478C260.149 198.154 266.983 208.267 272.705 219.546C238.742 189.502 208.681 155.564 192.536 112.301ZM72.4444 -46.8524C96.3621 -64.7234 120.28 -82.5945 144.197 -100.466C153.253 -107.231 163.742 -93.1925 154.687 -86.4266C130.77 -68.5555 106.852 -50.6845 82.9342 -32.8134C73.8837 -26.051 63.394 -40.09 72.4444 -46.8524ZM142.082 -61.6723C151.137 -68.4382 161.627 -54.3993 152.572 -47.6334C138.991 -37.4863 125.411 -27.3392 111.831 -17.1921C102.775 -10.4262 92.2857 -24.4652 101.341 -31.231C114.921 -41.3781 128.501 -51.5252 142.082 -61.6723Z" fill="#DD7F8A"/>
</svg>
