<svg width="163" height="137" viewBox="0 0 163 137" fill="none" xmlns="http://www.w3.org/2000/svg">
<path d="M60.9524 30.8296C58.5426 33.9616 56.1327 37.0936 53.7229 40.2257C51.3131 37.0936 48.9032 33.9616 46.4934 30.8296C42.0058 24.9942 31.9339 30.7524 36.491 36.6766C39.8199 41.0019 43.1451 45.3273 46.474 49.6526C43.1451 53.978 39.8199 58.3033 36.491 62.6287C31.9339 68.5529 42.0058 74.311 46.4934 68.4757C48.9032 65.3436 51.3131 62.2116 53.7229 59.0796C56.1327 62.2116 58.5426 65.3436 60.9524 68.4757C65.44 74.3072 75.5119 68.549 70.9548 62.6287C67.6258 58.3033 64.3007 53.978 60.9756 49.6526C64.3046 45.3273 67.6297 41.0019 70.9548 36.6766C75.5119 30.7562 65.44 24.9981 60.9524 30.8296Z" fill="#F4C0EB"/>
<path d="M107.779 25.7014C95.0503 25.0024 85.8782 36.1479 84.4918 47.7685C84.3682 48.2898 84.291 48.8459 84.3257 49.4716C84.2833 50.3058 84.4068 51.0357 84.6308 51.6845C86.2181 63.8264 95.1662 72.5505 107.779 73.2417C121.13 73.9755 130.588 61.6791 131.233 49.4716C131.936 36.1904 120.103 26.3772 107.779 25.7014ZM95.9115 49.4716C96.7418 33.8153 118.817 33.8153 119.647 49.4716C120.473 65.1471 96.7341 65.0506 95.9115 49.4716Z" fill="#F4C0EB"/>
<path d="M130.973 0H31.494C14.1269 0 0 14.1308 0 31.4979V67.4447C0 84.8118 14.1269 98.9426 31.494 98.9426H32.2046V136.573L71.5461 98.9426H130.977C148.344 98.9426 162.475 84.8118 162.475 67.4447V31.4979C162.471 14.1308 148.341 0 130.973 0ZM150.886 67.4447C150.886 78.4242 141.953 87.3568 130.973 87.3568H66.8963L43.7904 109.459V87.3568H31.494C20.5146 87.3568 11.5858 78.4242 11.5858 67.4447V31.4979C11.5858 20.5184 20.5146 11.5858 31.494 11.5858H130.973C141.953 11.5858 150.886 20.5184 150.886 31.4979V67.4447Z" fill="#F4C0EB"/>
</svg>
